<svg width="122" height="25" fill="none" xmlns="http://www.w3.org/2000/svg"><path d="M23.81 8.014h-8.067V0H8.012A8.011 8.011 0 0 1 0 8.014v7.734h8.012v8.014h7.731c0-4.427 3.642-8.014 8.068-8.014V8.014z" fill="url(#a)"/><path d="M38.706 20.534v-12H35V6.23h9.984v2.304h-3.648v12h-2.63zM45.222 20.534V10.09h2.362v2.323l-.192-.346c.243-.78.62-1.325 1.133-1.632.525-.307 1.152-.46 1.882-.46h.614v2.227h-.903c-.716 0-1.292.224-1.727.672-.436.435-.653 1.05-.653 1.843v5.817h-2.516zM56.129 20.765c-.807 0-1.51-.18-2.112-.538a3.593 3.593 0 0 1-1.364-1.497c-.307-.64-.46-1.39-.46-2.247V10.09h2.515v6.182c0 .435.083.82.25 1.152.178.32.428.576.748.768.333.18.704.269 1.114.269.41 0 .774-.09 1.094-.269.32-.192.57-.454.749-.787.18-.333.269-.73.269-1.19V10.09h2.515v10.444h-2.38V18.48l.21.365c-.243.64-.646 1.12-1.21 1.44-.55.32-1.196.48-1.938.48zM69.103 20.765a6.396 6.396 0 0 1-2.534-.5 6.072 6.072 0 0 1-1.997-1.382 5.615 5.615 0 0 1-1.21-2.093l2.17-.94c.346.819.845 1.465 1.498 1.939.653.46 1.389.691 2.208.691.46 0 .857-.07 1.19-.211.346-.154.608-.359.787-.615.192-.256.288-.563.288-.921 0-.423-.128-.768-.384-1.037-.243-.282-.614-.5-1.113-.653l-2.746-.883c-1.113-.346-1.952-.864-2.515-1.555-.563-.691-.845-1.504-.845-2.439 0-.819.199-1.542.595-2.17a4.09 4.09 0 0 1 1.69-1.458c.73-.359 1.562-.538 2.496-.538.858 0 1.645.154 2.362.46.716.295 1.33.711 1.843 1.249a4.954 4.954 0 0 1 1.17 1.862l-2.15.96c-.281-.717-.703-1.267-1.267-1.651-.563-.397-1.216-.595-1.958-.595-.435 0-.82.077-1.152.23-.333.141-.595.346-.787.615-.18.256-.269.563-.269.921 0 .397.128.749.384 1.056.256.295.646.525 1.171.691l2.63.826c1.14.371 1.99.883 2.554 1.536.576.653.864 1.46.864 2.42 0 .818-.211 1.542-.633 2.169-.423.627-1.005 1.12-1.748 1.478-.742.359-1.606.538-2.592.538zM81.247 20.765c-1.037 0-1.972-.237-2.804-.71a5.368 5.368 0 0 1-1.939-1.959c-.473-.832-.71-1.766-.71-2.803s.237-1.965.71-2.784a5.221 5.221 0 0 1 1.94-1.94c.831-.473 1.766-.71 2.803-.71a5.3 5.3 0 0 1 2.073.403c.64.256 1.19.615 1.651 1.076.474.448.813.985 1.018 1.612l-2.208.96a2.593 2.593 0 0 0-.98-1.267 2.607 2.607 0 0 0-1.554-.48c-.55 0-1.044.135-1.479.403a2.81 2.81 0 0 0-.998 1.114c-.243.474-.365 1.018-.365 1.632 0 .614.122 1.158.365 1.632s.576.845.998 1.114c.435.268.928.403 1.479.403.601 0 1.126-.16 1.574-.48.448-.32.768-.749.96-1.287l2.208.999a4.29 4.29 0 0 1-.998 1.593c-.461.461-1.012.826-1.652 1.095a5.584 5.584 0 0 1-2.092.384zM91.028 20.765c-.73 0-1.363-.122-1.9-.365-.538-.243-.954-.589-1.249-1.037-.294-.46-.442-.992-.442-1.593 0-.576.129-1.088.385-1.536.255-.461.652-.845 1.19-1.152.537-.308 1.216-.525 2.035-.653l3.418-.557v1.92l-2.938.5c-.5.089-.87.249-1.114.48-.243.23-.364.53-.364.902 0 .358.134.646.403.864.282.204.627.307 1.037.307.524 0 .985-.109 1.382-.327.41-.23.723-.544.94-.94.231-.397.346-.832.346-1.306v-2.688c0-.448-.179-.82-.537-1.114-.346-.307-.806-.46-1.383-.46-.537 0-1.017.147-1.44.441-.41.282-.71.66-.902 1.133l-2.054-.998c.205-.55.525-1.024.96-1.421.448-.41.972-.73 1.574-.96a5.43 5.43 0 0 1 1.959-.346c.857 0 1.612.16 2.265.48.653.307 1.158.743 1.517 1.306.371.55.557 1.197.557 1.939v6.95h-2.381V18.75l.537-.039a4.375 4.375 0 0 1-.96 1.133 4.332 4.332 0 0 1-1.267.691c-.473.154-.998.23-1.574.23zM98.997 24.374V10.09h2.362v2.073l-.23-.518a3.596 3.596 0 0 1 1.459-1.306c.614-.32 1.325-.48 2.131-.48.986 0 1.875.243 2.669.73a5.31 5.31 0 0 1 1.881 1.958c.474.82.711 1.741.711 2.765 0 1.011-.231 1.933-.691 2.765a5.271 5.271 0 0 1-1.882 1.977c-.794.474-1.696.71-2.707.71a4.949 4.949 0 0 1-2.093-.44 3.718 3.718 0 0 1-1.498-1.306l.404-.5v5.856h-2.516zm5.415-5.913c.576 0 1.088-.135 1.536-.403.448-.27.793-.64 1.037-1.114.256-.474.384-1.018.384-1.632 0-.614-.128-1.152-.384-1.613a2.726 2.726 0 0 0-1.037-1.113 2.825 2.825 0 0 0-1.536-.423c-.551 0-1.05.135-1.498.403a2.87 2.87 0 0 0-1.037 1.133c-.243.474-.364 1.011-.364 1.613 0 .614.121 1.158.364 1.632.256.474.602.845 1.037 1.114.448.268.947.403 1.498.403zM116.851 20.765c-1.075 0-2.016-.243-2.822-.73a5.079 5.079 0 0 1-1.882-1.977c-.448-.832-.672-1.754-.672-2.765 0-1.05.224-1.978.672-2.784a5.22 5.22 0 0 1 1.862-1.94c.794-.473 1.677-.71 2.65-.71.819 0 1.536.135 2.15.403.628.27 1.159.64 1.594 1.114.435.474.768 1.018.998 1.632.231.602.346 1.254.346 1.958 0 .18-.013.365-.038.557a1.835 1.835 0 0 1-.096.5h-8.064v-1.92h6.643l-1.191.902c.116-.589.084-1.114-.096-1.575a2.183 2.183 0 0 0-.844-1.094c-.384-.269-.852-.403-1.402-.403-.525 0-.992.134-1.402.403-.409.256-.723.64-.94 1.152-.205.5-.282 1.107-.231 1.824-.051.64.032 1.21.25 1.709.23.486.563.864.998 1.133.448.268.96.403 1.536.403.576 0 1.063-.122 1.459-.365.41-.243.73-.57.96-.98l2.036 1c-.205.498-.525.94-.96 1.324a4.786 4.786 0 0 1-1.556.902 5.607 5.607 0 0 1-1.958.327z" fill="#FAFAFA"/><defs><linearGradient id="a" x1="14.5" y1="5" x2="21" y2="16" gradientUnits="userSpaceOnUse"><stop stop-color="#E9D5FF"/><stop offset="1" stop-color="#D9F99D"/></linearGradient></defs></svg>